<?xml version="1.0" encoding="iso-8859-1"?>
<!-- Generator: Adobe Illustrator 16.0.0, SVG Export Plug-In . SVG Version: 6.00 Build 0)  -->
<!DOCTYPE svg PUBLIC "-//W3C//DTD SVG 1.1//EN" "http://www.w3.org/Graphics/SVG/1.1/DTD/svg11.dtd">
<svg version="1.1" id="Capa_1" xmlns="http://www.w3.org/2000/svg" xmlns:xlink="http://www.w3.org/1999/xlink" x="0px" y="0px"
	 width="329.024px" height="329.024px" viewBox="0 0 329.024 329.024" style="enable-background:new 0 0 329.024 329.024;"
	 xml:space="preserve">
<g>
	<g>
		<path d="M326.595,136.333c-0.444-2.522-1.916-4.75-4.06-6.149c-2.168-1.399-4.792-1.831-7.277-1.207
			c-5.675,1.417-11.56,1.099-16.91-0.96c-14.465-5.554-21.701-21.845-16.158-36.305c2.107-5.464,5.896-10.094,10.965-13.391
			c2.155-1.393,3.626-3.621,4.059-6.148c0.444-2.522-0.18-5.116-1.729-7.158c-10.178-13.427-22.313-25.148-36.034-34.834
			c-2.09-1.471-4.702-1.999-7.206-1.495c-2.498,0.522-4.678,2.06-6.011,4.246c-2.973,4.924-7.32,8.755-12.574,11.085
			c-3.627,1.615-7.458,2.438-11.397,2.438c-11.103,0-21.173-6.551-25.683-16.682c-2.401-5.404-3.02-11.337-1.801-17.155
			c0.528-2.504-0.012-5.11-1.472-7.212c-1.477-2.09-3.747-3.471-6.28-3.819c-16.646-2.324-33.666-2.071-50.06,0.733
			c-2.534,0.432-4.752,1.897-6.161,4.035s-1.865,4.768-1.249,7.253c1.384,5.615,1.021,11.403-1.033,16.742
			c-4.131,10.785-14.679,18.033-26.22,18.033c-3.438,0-6.818-0.637-10.076-1.886c-5.479-2.107-10.115-5.903-13.406-10.983
			c-1.384-2.15-3.603-3.627-6.125-4.071s-5.116,0.174-7.158,1.706c-13.484,10.136-25.265,22.248-35.017,35.98
			c-1.489,2.096-2.03,4.726-1.501,7.236c0.528,2.516,2.089,4.702,4.287,6.023c4.987,2.984,8.86,7.355,11.214,12.646
			c3.05,6.857,3.254,14.49,0.567,21.491c-2.688,7.001-7.951,12.538-14.808,15.588c-5.491,2.432-11.604,3.021-17.489,1.724
			c-2.507-0.559-5.14-0.042-7.254,1.411c-2.117,1.465-3.531,3.741-3.894,6.287c-2.39,16.849-2.177,33.789,0.639,50.35
			c0.433,2.553,1.925,4.805,4.096,6.209c2.171,1.399,4.828,1.813,7.338,1.171c5.743-1.507,11.706-1.2,17.149,0.889
			c7.002,2.69,12.535,7.95,15.585,14.796c3.05,6.852,3.243,14.484,0.556,21.491c-2.165,5.608-6.101,10.322-11.4,13.631
			c-2.198,1.375-3.714,3.591-4.194,6.131c-0.468,2.546,0.141,5.164,1.69,7.242c10.22,13.595,22.413,25.454,36.248,35.224
			c2.117,1.502,4.765,2.048,7.305,1.478c2.522-0.553,4.711-2.149,6.008-4.39c3-5.188,7.446-9.199,12.862-11.613
			c3.642-1.615,7.473-2.432,11.4-2.432c11.1,0,21.185,6.545,25.692,16.682c2.495,5.607,3.062,11.763,1.66,17.804
			c-0.604,2.522-0.099,5.188,1.372,7.319c1.468,2.133,3.768,3.562,6.326,3.916c7.509,1.045,15.144,1.585,22.683,1.585
			c9.322,0,18.702-0.816,27.859-2.408c2.546-0.444,4.804-1.934,6.203-4.125c1.393-2.192,1.801-4.852,1.129-7.356
			c-1.573-5.842-1.297-11.835,0.816-17.312c4.144-10.778,14.693-18.032,26.247-18.032c3.435,0,6.815,0.643,10.052,1.88
			c5.608,2.161,10.316,6.101,13.619,11.385c1.387,2.191,3.615,3.717,6.161,4.18c2.533,0.468,5.164-0.15,7.229-1.718
			c13.547-10.256,25.34-22.476,35.056-36.311c1.489-2.114,2.018-4.738,1.466-7.266c-0.553-2.517-2.126-4.702-4.348-6.006
			c-5.116-2.984-9.098-7.409-11.47-12.777c-6.287-14.153,0.103-30.793,14.243-37.08c5.477-2.438,11.578-3.026,17.463-1.723
			c2.521,0.546,5.151,0.029,7.266-1.441c2.119-1.466,3.519-3.76,3.867-6.317C329.795,169.821,329.489,152.917,326.595,136.333z
			 M193.258,229.119c-9.121,4.059-18.783,6.112-28.703,6.112c-27.922,0-53.299-16.477-64.648-41.979
			c-15.84-35.62,0.237-77.504,35.873-93.351c9.124-4.065,18.783-6.119,28.703-6.119c27.922,0,53.298,16.483,64.648,41.986
			C244.978,171.388,228.879,213.265,193.258,229.119z"/>
		<path d="M164.49,112.229c-7.311,0-14.463,1.52-21.209,4.521c-26.322,11.716-38.227,42.67-26.508,69.001
			c8.382,18.855,27.142,31.033,47.783,31.033c7.311,0,14.454-1.514,21.208-4.516c26.325-11.716,38.215-42.67,26.512-69.001
			C203.893,124.407,185.134,112.229,164.49,112.229z"/>
	</g>
</g>
<g>
</g>
<g>
</g>
<g>
</g>
<g>
</g>
<g>
</g>
<g>
</g>
<g>
</g>
<g>
</g>
<g>
</g>
<g>
</g>
<g>
</g>
<g>
</g>
<g>
</g>
<g>
</g>
<g>
</g>
</svg>
