<?xml version="1.0" encoding="iso-8859-1"?>
<!-- Generator: Adobe Illustrator 16.0.0, SVG Export Plug-In . SVG Version: 6.00 Build 0)  -->
<!DOCTYPE svg PUBLIC "-//W3C//DTD SVG 1.1//EN" "http://www.w3.org/Graphics/SVG/1.1/DTD/svg11.dtd">
<svg version="1.1" id="Capa_1" xmlns="http://www.w3.org/2000/svg" xmlns:xlink="http://www.w3.org/1999/xlink" x="0px" y="0px"
	 width="948.112px" height="948.112px" viewBox="0 0 948.112 948.112" style="enable-background:new 0 0 948.112 948.112;"
	 xml:space="preserve">
<g>
	<g>
		<path d="M39.068,674.506c-26.1,5-43.2,30.2-38.2,56.301c4.4,23,24.6,39,47.2,39c3,0,6.1-0.301,9.1-0.9l198-38
			c11.3-2.2,21.4-8.3,28.6-17.3l85-107.2l-28.399-14.5c-21-10.6-35.601-29.8-40.601-53.1l-80.2,101.1L39.068,674.506z"/>
		<circle cx="744.268" cy="151.106" r="105.4"/>
		<path d="M514.268,124.706c-11.1-11.4-21.399-15.9-32.699-15.9c-4.101,0-8.2,0.6-12.601,1.6l-180.899,42.9
			c-25,5.9-40.4,31-34.5,55.9c5.1,21.4,24.1,35.8,45.2,35.8c3.601,0,7.2-0.4,10.801-1.3l154.1-36.5c10,11.1,60.1,65.4,69.2,75l0,0
			c-63.7,68.2-127.4,136.3-191.101,204.5c-1,1.101-1.899,2.2-2.8,3.3c-18.6,23.7-12.899,60.9,15.101,75l33.899,17.301l161.4,82.399
			l-101.4,164.3c-13.899,22.601-6.899,52.2,15.7,66.2c7.9,4.9,16.6,7.2,25.2,7.2l0,0c16.1,0,31.899-8.1,41-22.8l128.8-208.7
			c7.1-11.5,9-25.4,5.3-38.3c-3.7-13-12.6-23.8-24.7-29.9l-132.3-67.3l139.101-148.8l105,89c8.699,7.399,19.399,11,30,11
			c11.399,0,22.8-4.2,31.699-12.4l120.5-112.3c18.801-17.5,19.9-46.9,2.4-65.7c-9.2-9.8-21.6-14.8-34-14.8
			c-11.3,0-22.7,4.1-31.6,12.4l-90.2,83.9C779.768,377.806,553.768,165.206,514.268,124.706z"/>
	</g>
</g>
<g>
</g>
<g>
</g>
<g>
</g>
<g>
</g>
<g>
</g>
<g>
</g>
<g>
</g>
<g>
</g>
<g>
</g>
<g>
</g>
<g>
</g>
<g>
</g>
<g>
</g>
<g>
</g>
<g>
</g>
</svg>
